<svg width="80" height="120" viewBox="0 0 80 120" fill="none" xmlns="http://www.w3.org/2000/svg">
<rect x="54.2854" y="65.7143" width="28.5714" height="28.5714" rx="14.2857" transform="rotate(90 54.2854 65.7143)" fill="#F7F2F2"/>
<rect x="54.2854" y="25.7143" width="28.5714" height="28.5714" rx="14.2857" transform="rotate(90 54.2854 25.7143)" fill="#F7F2F2"/>
<path fill-rule="evenodd" clip-rule="evenodd" d="M68.751 12.19C61.4786 4.67325 51.2852 3.52859e-05 40.0002 3.52859e-05C17.9088 3.52859e-05 0.000215156 17.9086 0.000215156 40C0.000215156 62.0914 17.9088 80 40.0002 80V62.8572C40.0001 62.8572 40 62.8572 39.9999 62.8572C27.3763 62.8572 17.1428 52.6237 17.1428 40.0001C17.1428 27.3764 27.3763 17.1429 39.9999 17.1429C46.6015 17.1429 52.5494 19.9415 56.7219 24.4171L68.751 12.19Z" fill="#4C6F5A"/>
<path fill-rule="evenodd" clip-rule="evenodd" d="M9.3374 105.688C16.675 114.437 27.6879 120 40 120C62.0914 120 80 102.091 80 79.9999C80 57.9085 62.0914 39.9999 40 39.9999C39.9759 39.9999 39.9519 40 39.9278 40H40L40 57.1427C40.0001 57.1427 40.0001 57.1427 40.0001 57.1427C52.6237 57.1427 62.8572 67.3762 62.8572 79.9999C62.8572 92.6235 52.6237 102.857 40.0001 102.857C32.8013 102.857 26.3798 99.5291 22.1901 94.3278L9.3374 105.688Z" fill="#4C6F5A"/>
<path fill-rule="evenodd" clip-rule="evenodd" d="M40.0002 102.857C40.0001 102.857 40 102.857 39.9999 102.857C27.3763 102.857 17.1428 92.6236 17.1428 80L0.000247955 80C0.00024699 102.091 17.9089 120 40.0002 120L40.0002 102.857Z" fill="#4C6F5A"/>
<path fill-rule="evenodd" clip-rule="evenodd" d="M40 102.857C40 102.857 40 102.857 40.0001 102.857C52.6237 102.857 62.8572 92.6236 62.8572 80L80 80C80 102.091 62.0914 120 40 120L40 102.857Z" fill="#4C6F5A"/>
</svg>
