<svg width="460" height="220" viewBox="0 0 460 220" fill="none" xmlns="http://www.w3.org/2000/svg">
<rect x="460" width="220" height="460" transform="rotate(90 460 0)" fill="#2D463B"/>
<circle cx="404" cy="73" r="37" fill="#4C6F5A"/>
<path d="M159.437 0C152.583 81.7712 84.0425 146 0.5 146C0.333273 146 0.166607 146 0 145.999V0H159.437Z" fill="#4C6F5A"/>
<path d="M348 220C352.814 162.312 400.962 117 459.649 117C459.766 117 459.883 117 460 117.001V220H348Z" fill="#4C6F5A"/>
<rect x="98.6714" y="113.339" width="16.6692" height="16.6692" rx="8.33459" transform="rotate(90 98.6714 113.339)" fill="#F7F2F2"/>
<rect x="98.6714" y="90.0022" width="16.6692" height="16.6692" rx="8.33459" transform="rotate(90 98.6714 90.0022)" fill="#F7F2F2"/>
<path fill-rule="evenodd" clip-rule="evenodd" d="M107.111 82.1118C102.868 77.7263 96.9209 74.9999 90.337 74.9999C77.4484 74.9999 67.0002 85.4481 67.0002 98.3367C67.0002 111.225 77.4484 121.674 90.337 121.674V111.672C90.337 111.672 90.337 111.672 90.337 111.672C82.9721 111.672 77.0016 105.702 77.0016 98.3366C77.0016 90.9717 82.9721 85.0013 90.337 85.0013C94.1885 85.0013 97.6586 86.634 100.093 89.2452L107.111 82.1118Z" fill="#2D463B"/>
<path fill-rule="evenodd" clip-rule="evenodd" d="M73.5632 137.899C77.8061 142.284 83.7532 145.011 90.337 145.011C103.226 145.011 113.674 134.562 113.674 121.674C113.674 108.785 103.226 98.3369 90.337 98.3369L90.337 108.338C90.3371 108.338 90.3371 108.338 90.3371 108.338C97.702 108.338 103.672 114.309 103.672 121.674C103.672 129.039 97.702 135.009 90.3371 135.009C86.4856 135.009 83.0155 133.376 80.5812 130.765L73.5632 137.899Z" fill="#2D463B"/>
<path fill-rule="evenodd" clip-rule="evenodd" d="M90.3369 135.009C90.3369 135.009 90.3369 135.009 90.3369 135.009C82.972 135.009 77.0016 129.038 77.0015 121.674L67.0001 121.674C67.0001 134.562 77.4483 145.01 90.3369 145.01L90.3369 135.009Z" fill="#4C6F5A"/>
<path fill-rule="evenodd" clip-rule="evenodd" d="M90.3369 135.009C90.3369 135.009 90.3369 135.009 90.3369 135.009C97.7018 135.009 103.672 129.038 103.672 121.674L113.674 121.674C113.674 134.562 103.226 145.01 90.3369 145.01L90.3369 135.009Z" fill="#4C6F5A"/>
<path d="M317.824 132.112C314.529 132.112 311.679 131.412 309.274 130.012C306.884 128.597 305.038 126.631 303.737 124.114C302.436 121.582 301.785 118.647 301.785 115.309C301.785 111.943 302.436 109.001 303.737 106.484C305.038 103.952 306.884 101.986 309.274 100.586C311.679 99.1715 314.529 98.4644 317.824 98.4644C321.119 98.4644 323.962 99.1715 326.353 100.586C328.757 101.986 330.61 103.952 331.911 106.484C333.212 109.001 333.863 111.943 333.863 115.309C333.863 118.647 333.212 121.582 331.911 124.114C330.61 126.631 328.757 128.597 326.353 130.012C323.962 131.412 321.119 132.112 317.824 132.112ZM317.866 125.111C319.366 125.111 320.617 124.687 321.622 123.838C322.626 122.975 323.382 121.801 323.892 120.316C324.415 118.831 324.677 117.141 324.677 115.246C324.677 113.35 324.415 111.66 323.892 110.175C323.382 108.69 322.626 107.516 321.622 106.653C320.617 105.791 319.366 105.359 317.866 105.359C316.353 105.359 315.08 105.791 314.048 106.653C313.029 107.516 312.258 108.69 311.735 110.175C311.226 111.66 310.971 113.35 310.971 115.246C310.971 117.141 311.226 118.831 311.735 120.316C312.258 121.801 313.029 122.975 314.048 123.838C315.08 124.687 316.353 125.111 317.866 125.111Z" fill="#4C6F5A"/>
<path d="M277.128 132.006C274.652 132.006 272.411 131.369 270.402 130.096C268.408 128.809 266.824 126.921 265.65 124.432C264.49 121.929 263.91 118.859 263.91 115.224C263.91 111.491 264.512 108.386 265.714 105.911C266.916 103.422 268.514 101.562 270.508 100.331C272.517 99.0867 274.716 98.4643 277.106 98.4643C278.931 98.4643 280.451 98.7755 281.668 99.3978C282.898 100.006 283.888 100.77 284.638 101.689C285.402 102.594 285.981 103.485 286.377 104.362H286.653V88.0264H295.67V131.475H286.759V126.256H286.377C285.953 127.162 285.352 128.06 284.574 128.951C283.81 129.828 282.813 130.556 281.583 131.136C280.366 131.716 278.881 132.006 277.128 132.006ZM279.992 124.814C281.448 124.814 282.679 124.418 283.683 123.626C284.701 122.82 285.479 121.695 286.017 120.253C286.568 118.81 286.844 117.12 286.844 115.182C286.844 113.244 286.576 111.561 286.038 110.133C285.501 108.704 284.723 107.601 283.704 106.823C282.686 106.045 281.448 105.656 279.992 105.656C278.507 105.656 277.255 106.059 276.237 106.866C275.218 107.672 274.447 108.789 273.924 110.218C273.401 111.646 273.139 113.301 273.139 115.182C273.139 117.077 273.401 118.753 273.924 120.21C274.462 121.653 275.232 122.784 276.237 123.605C277.255 124.411 278.507 124.814 279.992 124.814Z" fill="#4C6F5A"/>
<path d="M236.993 112.636V131.475H227.956V98.8887H236.569V104.638H236.951C237.672 102.743 238.881 101.244 240.579 100.14C242.276 99.023 244.334 98.4644 246.752 98.4644C249.015 98.4644 250.988 98.9594 252.671 99.9494C254.355 100.939 255.663 102.354 256.596 104.193C257.53 106.017 257.997 108.195 257.997 110.727V131.475H248.959V112.339C248.973 110.345 248.464 108.789 247.431 107.672C246.399 106.54 244.977 105.975 243.167 105.975C241.951 105.975 240.876 106.236 239.942 106.76C239.023 107.283 238.302 108.047 237.778 109.051C237.269 110.041 237.007 111.236 236.993 112.636Z" fill="#4C6F5A"/>
<path d="M206.04 132.112C202.745 132.112 199.895 131.412 197.49 130.012C195.1 128.597 193.254 126.631 191.953 124.114C190.652 121.582 190.001 118.647 190.001 115.309C190.001 111.943 190.652 109.001 191.953 106.484C193.254 103.952 195.1 101.986 197.49 100.586C199.895 99.1715 202.745 98.4644 206.04 98.4644C209.336 98.4644 212.178 99.1715 214.569 100.586C216.973 101.986 218.826 103.952 220.127 106.484C221.428 109.001 222.079 111.943 222.079 115.309C222.079 118.647 221.428 121.582 220.127 124.114C218.826 126.631 216.973 128.597 214.569 130.012C212.178 131.412 209.336 132.112 206.04 132.112ZM206.082 125.111C207.582 125.111 208.833 124.687 209.838 123.838C210.842 122.975 211.598 121.801 212.108 120.316C212.631 118.831 212.893 117.141 212.893 115.246C212.893 113.35 212.631 111.66 212.108 110.175C211.598 108.69 210.842 107.516 209.838 106.653C208.833 105.791 207.582 105.359 206.082 105.359C204.569 105.359 203.296 105.791 202.264 106.653C201.245 107.516 200.475 108.69 199.951 110.175C199.442 111.66 199.187 113.35 199.187 115.246C199.187 117.141 199.442 118.831 199.951 120.316C200.475 121.801 201.245 122.975 202.264 123.838C203.296 124.687 204.569 125.111 206.082 125.111Z" fill="#4C6F5A"/>
<path d="M170.976 132.112C167.638 132.112 164.767 131.405 162.363 129.99C159.973 128.562 158.134 126.582 156.847 124.05C155.574 121.518 154.938 118.605 154.938 115.309C154.938 111.971 155.581 109.044 156.868 106.526C158.169 103.994 160.015 102.021 162.405 100.607C164.796 99.1786 167.638 98.4644 170.934 98.4644C173.777 98.4644 176.266 98.9806 178.402 100.013C180.537 101.046 182.228 102.495 183.472 104.362C184.717 106.229 185.403 108.421 185.53 110.939H177.001C176.761 109.312 176.125 108.004 175.092 107.014C174.074 106.01 172.737 105.508 171.082 105.508C169.682 105.508 168.459 105.89 167.412 106.653C166.38 107.403 165.573 108.499 164.994 109.942C164.414 111.385 164.124 113.131 164.124 115.182C164.124 117.261 164.407 119.029 164.972 120.486C165.552 121.943 166.366 123.053 167.412 123.817C168.459 124.58 169.682 124.962 171.082 124.962C172.115 124.962 173.041 124.75 173.862 124.326C174.696 123.902 175.382 123.286 175.92 122.48C176.471 121.66 176.832 120.677 177.001 119.531H185.53C185.389 122.02 184.71 124.213 183.493 126.108C182.291 127.989 180.629 129.46 178.508 130.521C176.386 131.582 173.876 132.112 170.976 132.112Z" fill="#4C6F5A"/>
<path d="M135.398 132.112C132.046 132.112 129.161 131.433 126.742 130.075C124.338 128.703 122.485 126.766 121.184 124.262C119.883 121.745 119.232 118.767 119.232 115.331C119.232 111.979 119.883 109.037 121.184 106.505C122.485 103.973 124.317 102 126.679 100.586C129.055 99.1715 131.841 98.4644 135.038 98.4644C137.187 98.4644 139.189 98.8109 141.042 99.5039C142.909 100.183 144.535 101.208 145.921 102.58C147.321 103.952 148.41 105.678 149.188 107.757C149.966 109.822 150.355 112.24 150.355 115.012V117.495H122.839V111.894H141.848C141.848 110.592 141.565 109.44 140.999 108.436C140.433 107.431 139.648 106.646 138.644 106.081C137.654 105.501 136.501 105.211 135.186 105.211C133.814 105.211 132.598 105.529 131.537 106.166C130.49 106.788 129.67 107.629 129.076 108.69C128.482 109.737 128.178 110.904 128.164 112.191V117.516C128.164 119.128 128.461 120.521 129.055 121.695C129.663 122.869 130.519 123.774 131.622 124.411C132.725 125.047 134.033 125.365 135.547 125.365C136.551 125.365 137.47 125.224 138.305 124.941C139.139 124.658 139.854 124.234 140.448 123.668C141.042 123.102 141.494 122.409 141.805 121.589L150.164 122.141C149.74 124.149 148.87 125.903 147.555 127.402C146.253 128.887 144.57 130.047 142.505 130.881C140.455 131.702 138.086 132.112 135.398 132.112Z" fill="#4C6F5A"/>
<path d="M392.852 91.7603V135.209H383.666V91.7603H392.852Z" fill="#F7F2F2"/>
<path d="M366.922 91.7603H376.108V119.977C376.108 123.145 375.351 125.917 373.838 128.293C372.339 130.669 370.238 132.522 367.537 133.852C364.835 135.167 361.689 135.825 358.096 135.825C354.489 135.825 351.335 135.167 348.634 133.852C345.933 132.522 343.832 130.669 342.333 128.293C340.834 125.917 340.084 123.145 340.084 119.977V91.7603H349.27V119.192C349.27 120.847 349.631 122.317 350.352 123.605C351.088 124.892 352.12 125.903 353.45 126.638C354.779 127.374 356.328 127.742 358.096 127.742C359.878 127.742 361.427 127.374 362.742 126.638C364.072 125.903 365.097 124.892 365.818 123.605C366.554 122.317 366.922 120.847 366.922 119.192V91.7603Z" fill="#F7F2F2"/>
</svg>
